# Cartoon mascot inspired 3D model
# Vertices include RGB colors per line
v 0.0000 1.2000 0.0000 0.9900 0.9100 0.7500
v 0.9000 0.6000 0.0000 0.9900 0.9100 0.7500
v 0.6364 0.6000 0.6364 0.9900 0.9100 0.7500
v 0.0000 0.6000 0.9000 0.9900 0.9100 0.7500
v -0.6364 0.6000 0.6364 0.9900 0.9100 0.7500
v -0.9000 0.6000 0.0000 0.9900 0.9100 0.7500
v -0.6364 0.6000 -0.6364 0.9900 0.9100 0.7500
v -0.0000 0.6000 -0.9000 0.9900 0.9100 0.7500
v 0.6364 0.6000 -0.6364 0.9900 0.9100 0.7500
v 1.0000 -0.4000 0.0000 0.9900 0.9100 0.7500
v 0.7071 -0.4000 0.7071 0.9900 0.9100 0.7500
v 0.0000 -0.4000 1.0000 0.9900 0.9100 0.7500
v -0.7071 -0.4000 0.7071 0.9900 0.9100 0.7500
v -1.0000 -0.4000 0.0000 0.9900 0.9100 0.7500
v -0.7071 -0.4000 -0.7071 0.9900 0.9100 0.7500
v -0.0000 -0.4000 -1.0000 0.9900 0.9100 0.7500
v 0.7071 -0.4000 -0.7071 0.9900 0.9100 0.7500
v 0.0000 -1.2000 0.0000 0.9900 0.9100 0.7500
v 0.0000 -0.1000 0.9700 0.9900 0.9500 0.8500
v 0.0000 0.4500 0.9500 0.9900 0.9500 0.8500
v 0.3500 0.2500 0.9500 0.9900 0.9500 0.8500
v 0.3500 -0.2500 0.9500 0.9900 0.9500 0.8500
v 0.0000 -0.5500 0.9500 0.9900 0.9500 0.8500
v -0.3500 -0.2500 0.9500 0.9900 0.9500 0.8500
v -0.3500 0.2500 0.9500 0.9900 0.9500 0.8500
v -0.9000 -0.1000 -1.1000 0.3200 0.7300 0.9600
v 0.9000 -0.1000 -1.1000 0.3200 0.7300 0.9600
v 0.9000 0.8500 -1.1000 0.3200 0.7300 0.9600
v -0.9000 0.8500 -1.1000 0.3200 0.7300 0.9600
v -0.9000 -0.1000 -0.3000 0.3200 0.7300 0.9600
v 0.9000 -0.1000 -0.3000 0.3200 0.7300 0.9600
v 0.9000 0.8500 -0.3000 0.3200 0.7300 0.9600
v -0.9000 0.8500 -0.3000 0.3200 0.7300 0.9600
v -1.3500 -0.2500 -0.2500 0.3200 0.7300 0.9600
v -0.8500 -0.2500 -0.2500 0.3200 0.7300 0.9600
v -0.8500 0.5500 -0.2500 0.3200 0.7300 0.9600
v -1.3500 0.5500 -0.2500 0.3200 0.7300 0.9600
v -1.3500 -0.2500 0.3500 0.3200 0.7300 0.9600
v -0.8500 -0.2500 0.3500 0.3200 0.7300 0.9600
v -0.8500 0.5500 0.3500 0.3200 0.7300 0.9600
v -1.3500 0.5500 0.3500 0.3200 0.7300 0.9600
v 0.8500 -0.2500 -0.2500 0.3200 0.7300 0.9600
v 1.3500 -0.2500 -0.2500 0.3200 0.7300 0.9600
v 1.3500 0.5500 -0.2500 0.3200 0.7300 0.9600
v 0.8500 0.5500 -0.2500 0.3200 0.7300 0.9600
v 0.8500 -0.2500 0.3500 0.3200 0.7300 0.9600
v 1.3500 -0.2500 0.3500 0.3200 0.7300 0.9600
v 1.3500 0.5500 0.3500 0.3200 0.7300 0.9600
v 0.8500 0.5500 0.3500 0.3200 0.7300 0.9600
v -1.1500 -0.5500 0.2500 0.9800 0.6800 0.3300
v -0.8500 -0.5500 0.2500 0.9800 0.6800 0.3300
v -0.8500 -0.3500 0.2500 0.9800 0.6800 0.3300
v -1.1500 -0.3500 0.2500 0.9800 0.6800 0.3300
v -1.1500 -0.5500 0.5500 0.9800 0.6800 0.3300
v -0.8500 -0.5500 0.5500 0.9800 0.6800 0.3300
v -0.8500 -0.3500 0.5500 0.9800 0.6800 0.3300
v -1.1500 -0.3500 0.5500 0.9800 0.6800 0.3300
v 0.8500 -0.5500 0.2500 0.9800 0.6800 0.3300
v 1.1500 -0.5500 0.2500 0.9800 0.6800 0.3300
v 1.1500 -0.3500 0.2500 0.9800 0.6800 0.3300
v 0.8500 -0.3500 0.2500 0.9800 0.6800 0.3300
v 0.8500 -0.5500 0.5500 0.9800 0.6800 0.3300
v 1.1500 -0.5500 0.5500 0.9800 0.6800 0.3300
v 1.1500 -0.3500 0.5500 0.9800 0.6800 0.3300
v 0.8500 -0.3500 0.5500 0.9800 0.6800 0.3300
v -0.5500 -1.2000 0.2000 0.9700 0.5400 0.1500
v -0.1500 -1.2000 0.2000 0.9700 0.5400 0.1500
v -0.1500 -0.9000 0.2000 0.9700 0.5400 0.1500
v -0.5500 -0.9000 0.2000 0.9700 0.5400 0.1500
v -0.5500 -1.2000 0.5500 0.9700 0.5400 0.1500
v -0.1500 -1.2000 0.5500 0.9700 0.5400 0.1500
v -0.1500 -0.9000 0.5500 0.9700 0.5400 0.1500
v -0.5500 -0.9000 0.5500 0.9700 0.5400 0.1500
v 0.1500 -1.2000 0.2000 0.9700 0.5400 0.1500
v 0.5500 -1.2000 0.2000 0.9700 0.5400 0.1500
v 0.5500 -0.9000 0.2000 0.9700 0.5400 0.1500
v 0.1500 -0.9000 0.2000 0.9700 0.5400 0.1500
v 0.1500 -1.2000 0.5500 0.9700 0.5400 0.1500
v 0.5500 -1.2000 0.5500 0.9700 0.5400 0.1500
v 0.5500 -0.9000 0.5500 0.9700 0.5400 0.1500
v 0.1500 -0.9000 0.5500 0.9700 0.5400 0.1500
v -0.5100 0.1500 0.7800 0.1200 0.3100 0.6800
v -0.1900 0.1500 0.7800 0.1200 0.3100 0.6800
v -0.1900 0.6000 0.7800 0.1200 0.3100 0.6800
v -0.5100 0.6000 0.7800 0.1200 0.3100 0.6800
v -0.5100 0.1500 1.0000 0.1200 0.3100 0.6800
v -0.1900 0.1500 1.0000 0.1200 0.3100 0.6800
v -0.1900 0.6000 1.0000 0.1200 0.3100 0.6800
v -0.5100 0.6000 1.0000 0.1200 0.3100 0.6800
v -0.4900 0.4000 0.9500 0.8500 0.9500 1.0000
v -0.4100 0.4000 0.9500 0.8500 0.9500 1.0000
v -0.4100 0.5200 0.9500 0.8500 0.9500 1.0000
v -0.4900 0.5200 0.9500 0.8500 0.9500 1.0000
v -0.4900 0.4000 1.0100 0.8500 0.9500 1.0000
v -0.4100 0.4000 1.0100 0.8500 0.9500 1.0000
v -0.4100 0.5200 1.0100 0.8500 0.9500 1.0000
v -0.4900 0.5200 1.0100 0.8500 0.9500 1.0000
v 0.1900 0.1500 0.7800 0.1200 0.3100 0.6800
v 0.5100 0.1500 0.7800 0.1200 0.3100 0.6800
v 0.5100 0.6000 0.7800 0.1200 0.3100 0.6800
v 0.1900 0.6000 0.7800 0.1200 0.3100 0.6800
v 0.1900 0.1500 1.0000 0.1200 0.3100 0.6800
v 0.5100 0.1500 1.0000 0.1200 0.3100 0.6800
v 0.5100 0.6000 1.0000 0.1200 0.3100 0.6800
v 0.1900 0.6000 1.0000 0.1200 0.3100 0.6800
v 0.2100 0.4000 0.9500 0.8500 0.9500 1.0000
v 0.2900 0.4000 0.9500 0.8500 0.9500 1.0000
v 0.2900 0.5200 0.9500 0.8500 0.9500 1.0000
v 0.2100 0.5200 0.9500 0.8500 0.9500 1.0000
v 0.2100 0.4000 1.0100 0.8500 0.9500 1.0000
v 0.2900 0.4000 1.0100 0.8500 0.9500 1.0000
v 0.2900 0.5200 1.0100 0.8500 0.9500 1.0000
v 0.2100 0.5200 1.0100 0.8500 0.9500 1.0000
v 0.0000 0.1800 1.0200 0.1200 0.1200 0.2000
v -0.0800 0.0500 0.9500 0.1200 0.1200 0.2000
v 0.0800 0.0500 0.9500 0.1200 0.1200 0.2000
v 0.0000 0.0500 0.8600 0.1200 0.1200 0.2000
v -0.3200 0.0200 0.9300 0.1200 0.1200 0.2000
v -0.2400 0.0200 0.9300 0.1200 0.1200 0.2000
v -0.2400 0.0800 0.9300 0.1200 0.1200 0.2000
v -0.3200 0.0800 0.9300 0.1200 0.1200 0.2000
v -0.3200 0.0200 1.0200 0.1200 0.1200 0.2000
v -0.2400 0.0200 1.0200 0.1200 0.1200 0.2000
v -0.2400 0.0800 1.0200 0.1200 0.1200 0.2000
v -0.3200 0.0800 1.0200 0.1200 0.1200 0.2000
v 0.2400 0.0200 0.9300 0.1200 0.1200 0.2000
v 0.3200 0.0200 0.9300 0.1200 0.1200 0.2000
v 0.3200 0.0800 0.9300 0.1200 0.1200 0.2000
v 0.2400 0.0800 0.9300 0.1200 0.1200 0.2000
v 0.2400 0.0200 1.0200 0.1200 0.1200 0.2000
v 0.3200 0.0200 1.0200 0.1200 0.1200 0.2000
v 0.3200 0.0800 1.0200 0.1200 0.1200 0.2000
v 0.2400 0.0800 1.0200 0.1200 0.1200 0.2000
v -0.4000 1.0500 0.1800 0.9700 0.5400 0.1500
v -0.7000 0.9500 0.0000 0.9700 0.5400 0.1500
v -0.4000 1.0500 -0.1800 0.9700 0.5400 0.1500
v -0.5500 1.3800 0.0000 0.9700 0.5400 0.1500
v 0.4000 1.0500 0.1800 0.9700 0.5400 0.1500
v 0.7000 0.9500 0.0000 0.9700 0.5400 0.1500
v 0.4000 1.0500 -0.1800 0.9700 0.5400 0.1500
v 0.5500 1.3800 0.0000 0.9700 0.5400 0.1500
v 1.0500 0.2000 -0.2000 0.9800 0.6200 0.2500
v 1.0500 -0.1500 -0.2000 0.9800 0.6200 0.2500
v 1.0500 0.1500 -0.8500 0.9800 0.6200 0.2500
v 1.0500 -0.2000 -0.8500 0.9800 0.6200 0.2500
v 1.8500 0.0000 -0.5500 0.9800 0.6200 0.2500
v 1.7500 -0.2500 -0.6500 0.9800 0.6200 0.2500
v 1.2000 -1.2500 0.0000 0.0700 0.2200 0.4200
v 1.2000 -1.2800 0.0000 0.0700 0.2200 0.4200
v 1.0392 -1.2500 0.2750 0.0700 0.2200 0.4200
v 1.0392 -1.2800 0.2750 0.0700 0.2200 0.4200
v 0.6000 -1.2500 0.4763 0.0700 0.2200 0.4200
v 0.6000 -1.2800 0.4763 0.0700 0.2200 0.4200
v 0.0000 -1.2500 0.5500 0.0700 0.2200 0.4200
v 0.0000 -1.2800 0.5500 0.0700 0.2200 0.4200
v -0.6000 -1.2500 0.4763 0.0700 0.2200 0.4200
v -0.6000 -1.2800 0.4763 0.0700 0.2200 0.4200
v -1.0392 -1.2500 0.2750 0.0700 0.2200 0.4200
v -1.0392 -1.2800 0.2750 0.0700 0.2200 0.4200
v -1.2000 -1.2500 0.0000 0.0700 0.2200 0.4200
v -1.2000 -1.2800 0.0000 0.0700 0.2200 0.4200
v -1.0392 -1.2500 -0.2750 0.0700 0.2200 0.4200
v -1.0392 -1.2800 -0.2750 0.0700 0.2200 0.4200
v -0.6000 -1.2500 -0.4763 0.0700 0.2200 0.4200
v -0.6000 -1.2800 -0.4763 0.0700 0.2200 0.4200
v -0.0000 -1.2500 -0.5500 0.0700 0.2200 0.4200
v -0.0000 -1.2800 -0.5500 0.0700 0.2200 0.4200
v 0.6000 -1.2500 -0.4763 0.0700 0.2200 0.4200
v 0.6000 -1.2800 -0.4763 0.0700 0.2200 0.4200
v 1.0392 -1.2500 -0.2750 0.0700 0.2200 0.4200
v 1.0392 -1.2800 -0.2750 0.0700 0.2200 0.4200
v 0.0000 -1.2500 0.0000 0.0700 0.2200 0.4200
v 0.0000 -1.2800 0.0000 0.0700 0.2200 0.4200
f 1 2 3
f 1 3 4
f 1 4 5
f 1 5 6
f 1 6 7
f 1 7 8
f 1 8 9
f 1 9 2
f 2 10 11
f 2 11 3
f 3 11 12
f 3 12 4
f 4 12 13
f 4 13 5
f 5 13 14
f 5 14 6
f 6 14 15
f 6 15 7
f 7 15 16
f 7 16 8
f 8 16 17
f 8 17 9
f 9 17 10
f 9 10 2
f 18 11 10
f 18 12 11
f 18 13 12
f 18 14 13
f 18 15 14
f 18 16 15
f 18 17 16
f 18 10 17
f 19 20 21
f 19 21 22
f 19 22 23
f 19 23 24
f 19 24 25
f 19 25 20
f 30 31 32
f 30 32 33
f 27 26 29
f 27 29 28
f 26 30 33
f 26 33 29
f 31 27 28
f 31 28 32
f 29 33 32
f 29 32 28
f 26 27 31
f 26 31 30
f 38 39 40
f 38 40 41
f 35 34 37
f 35 37 36
f 34 38 41
f 34 41 37
f 39 35 36
f 39 36 40
f 37 41 40
f 37 40 36
f 34 35 39
f 34 39 38
f 46 47 48
f 46 48 49
f 43 42 45
f 43 45 44
f 42 46 49
f 42 49 45
f 47 43 44
f 47 44 48
f 45 49 48
f 45 48 44
f 42 43 47
f 42 47 46
f 54 55 56
f 54 56 57
f 51 50 53
f 51 53 52
f 50 54 57
f 50 57 53
f 55 51 52
f 55 52 56
f 53 57 56
f 53 56 52
f 50 51 55
f 50 55 54
f 62 63 64
f 62 64 65
f 59 58 61
f 59 61 60
f 58 62 65
f 58 65 61
f 63 59 60
f 63 60 64
f 61 65 64
f 61 64 60
f 58 59 63
f 58 63 62
f 70 71 72
f 70 72 73
f 67 66 69
f 67 69 68
f 66 70 73
f 66 73 69
f 71 67 68
f 71 68 72
f 69 73 72
f 69 72 68
f 66 67 71
f 66 71 70
f 78 79 80
f 78 80 81
f 75 74 77
f 75 77 76
f 74 78 81
f 74 81 77
f 79 75 76
f 79 76 80
f 77 81 80
f 77 80 76
f 74 75 79
f 74 79 78
f 86 87 88
f 86 88 89
f 83 82 85
f 83 85 84
f 82 86 89
f 82 89 85
f 87 83 84
f 87 84 88
f 85 89 88
f 85 88 84
f 82 83 87
f 82 87 86
f 94 95 96
f 94 96 97
f 91 90 93
f 91 93 92
f 90 94 97
f 90 97 93
f 95 91 92
f 95 92 96
f 93 97 96
f 93 96 92
f 90 91 95
f 90 95 94
f 102 103 104
f 102 104 105
f 99 98 101
f 99 101 100
f 98 102 105
f 98 105 101
f 103 99 100
f 103 100 104
f 101 105 104
f 101 104 100
f 98 99 103
f 98 103 102
f 110 111 112
f 110 112 113
f 107 106 109
f 107 109 108
f 106 110 113
f 106 113 109
f 111 107 108
f 111 108 112
f 109 113 112
f 109 112 108
f 106 107 111
f 106 111 110
f 114 115 116
f 115 117 116
f 114 117 115
f 114 116 117
f 122 123 124
f 122 124 125
f 119 118 121
f 119 121 120
f 118 122 125
f 118 125 121
f 123 119 120
f 123 120 124
f 121 125 124
f 121 124 120
f 118 119 123
f 118 123 122
f 130 131 132
f 130 132 133
f 127 126 129
f 127 129 128
f 126 130 133
f 126 133 129
f 131 127 128
f 131 128 132
f 129 133 132
f 129 132 128
f 126 127 131
f 126 131 130
f 137 134 135
f 137 135 136
f 137 136 134
f 134 136 135
f 141 138 139
f 141 139 140
f 141 140 138
f 138 140 139
f 142 143 145
f 142 145 144
f 142 144 146
f 143 147 145
f 144 145 147
f 144 147 146
f 142 146 147
f 142 147 143
f 172 148 150
f 173 151 149
f 148 149 151
f 148 151 150
f 172 150 152
f 173 153 151
f 150 151 153
f 150 153 152
f 172 152 154
f 173 155 153
f 152 153 155
f 152 155 154
f 172 154 156
f 173 157 155
f 154 155 157
f 154 157 156
f 172 156 158
f 173 159 157
f 156 157 159
f 156 159 158
f 172 158 160
f 173 161 159
f 158 159 161
f 158 161 160
f 172 160 162
f 173 163 161
f 160 161 163
f 160 163 162
f 172 162 164
f 173 165 163
f 162 163 165
f 162 165 164
f 172 164 166
f 173 167 165
f 164 165 167
f 164 167 166
f 172 166 168
f 173 169 167
f 166 167 169
f 166 169 168
f 172 168 170
f 173 171 169
f 168 169 171
f 168 171 170
f 172 170 148
f 173 149 171
f 170 171 149
f 170 149 148
